<?xml version="1.0" encoding="utf-8"?>
<svg id="svg2" width="512" height="512" viewBox="-315 -366 731 732" version="1.1" xmlns="http://www.w3.org/2000/svg">
    <title id="title4460">jigsaw-puzzle-II</title>
    <defs id="defs4">
        <linearGradient id="linearGradient4008" x1="444.77" gradientUnits="userSpaceOnUse" y1="302.12"
                        gradientTransform="matrix(1, 0, 0, 1, -611.814209, -182.110413)" x2="602.46" y2="451.32">
            <stop id="stop4416" style="stop-color:#ff298f" offset="0"/>
            <stop id="stop4418" style="stop-color:#d51952" offset="0.45"/>
            <stop id="stop4420" style="stop-color:#b5093b" offset="1"/>
        </linearGradient>
        <linearGradient id="linearGradient4013" x1="444.77" gradientUnits="userSpaceOnUse" y1="302.12"
                        gradientTransform="matrix(1, 0, 0, 1, -429.40979, -182.110321)" x2="602.46" y2="451.32">
            <stop id="stop4424" style="stop-color:#139bca" offset="0"/>
            <stop id="stop4426" style="stop-color:#0e5fb0" offset="0.45"/>
            <stop id="stop4428" style="stop-color:#0a57a9" offset="1"/>
        </linearGradient>
        <linearGradient id="linearGradient4027" x1="444.77" gradientUnits="userSpaceOnUse" y1="302.12"
                        gradientTransform="matrix(-1, 0, 0, -1, 444.036926, 754.604858)" x2="602.46" y2="451.32">
            <stop id="stop4432" style="stop-color:#dd8509" offset="0"/>
            <stop id="stop4434" style="stop-color:#f1bd0a" offset="0.45"/>
            <stop id="stop4436" style="stop-color:#fff44d" offset="1"/>
        </linearGradient>
        <linearGradient id="linearGradient4029" x1="444.77" gradientUnits="userSpaceOnUse" y1="302.12"
                        gradientTransform="matrix(-1, 0, 0, -1, 627.731628, 754.170593)" x2="602.46" y2="451.32">
            <stop id="stop4440" style="stop-color:#489f03" offset="0"/>
            <stop id="stop4442" style="stop-color:#55b505" offset="0.45"/>
            <stop id="stop4444" style="stop-color:#67d308" offset="1"/>
        </linearGradient>
        <filter id="filter4402" color-interpolation-filters="sRGB">
            <feGaussianBlur id="feGaussianBlur4404" stdDeviation="1.0360341"/>
        </filter>
        <linearGradient id="gradient-1" x1="444.77" gradientUnits="userSpaceOnUse" y1="302.12"
                        gradientTransform="matrix(-1, 0, 0, -1, 810.908673, 437.121691)" x2="602.46" y2="451.32">
            <stop id="stop-1" style="stop-color:#dd8509" offset="0"/>
            <stop id="stop-2" style="stop-color:#f1bd0a" offset="0.45"/>
            <stop id="stop-3" style="stop-color:#fff44d" offset="1"/>
        </linearGradient>
        <linearGradient id="gradient-2" x1="444.77" gradientUnits="userSpaceOnUse" y1="302.12"
                        gradientTransform="matrix(0, 1, -1, 0, 837.734009, -517.160034)" x2="602.46" y2="451.32">
            <stop id="stop-4" style="stop-color:#139bca" offset="0"/>
            <stop id="stop-5" style="stop-color:#0e5fb0" offset="0.45"/>
            <stop id="stop-6" style="stop-color:#0a57a9" offset="1"/>
        </linearGradient>
        <linearGradient id="gradient-3" x1="444.77" gradientUnits="userSpaceOnUse" y1="302.12"
                        gradientTransform="matrix(0, 1.000001, -1.000001, 0, 838.283417, -701.639145)" x2="602.46"
                        y2="451.32">
            <stop id="stop-7" style="stop-color:#ff298f" offset="0"/>
            <stop id="stop-8" style="stop-color:#d51952" offset="0.45"/>
            <stop id="stop-9" style="stop-color:#b5093b" offset="1"/>
        </linearGradient>
        <linearGradient id="gradient-4" x1="444.77" gradientUnits="userSpaceOnUse" y1="302.12"
                        gradientTransform="matrix(1, 0.000001, -0.000001, 1, -431.171253, -547.119954)" x2="602.46"
                        y2="451.32">
            <stop id="stop-10" style="stop-color:#dd8509" offset="0"/>
            <stop id="stop-11" style="stop-color:#f1bd0a" offset="0.45"/>
            <stop id="stop-12" style="stop-color:#fff44d" offset="1"/>
        </linearGradient>
        <linearGradient id="gradient-5" x1="444.77" gradientUnits="userSpaceOnUse" y1="302.12"
                        gradientTransform="matrix(-0.000001, -1, 1, -0.000001, -276.405842, 1089.463372)" x2="602.46"
                        y2="451.32">
            <stop id="stop-13" style="stop-color:#ff298f" offset="0"/>
            <stop id="stop-14" style="stop-color:#d51952" offset="0.45"/>
            <stop id="stop-15" style="stop-color:#b5093b" offset="1"/>
        </linearGradient>
        <linearGradient id="gradient-6" x1="444.77" gradientUnits="userSpaceOnUse" y1="302.12"
                        gradientTransform="matrix(-1, 0, 0, -1, 811.985596, 937.694458)" x2="602.46" y2="451.32">
            <stop id="stop-16" style="stop-color:#dd8509" offset="0"/>
            <stop id="stop-17" style="stop-color:#f1bd0a" offset="0.45"/>
            <stop id="stop-18" style="stop-color:#fff44d" offset="1"/>
        </linearGradient>
        <linearGradient id="gradient-7" x1="444.77" gradientUnits="userSpaceOnUse" y1="302.12"
                        gradientTransform="matrix(1, 0, 0, 1, -795.619202, -365.816406)" x2="602.46" y2="451.32">
            <stop id="stop-19" style="stop-color:#139bca" offset="0"/>
            <stop id="stop-20" style="stop-color:#0e5fb0" offset="0.45"/>
            <stop id="stop-21" style="stop-color:#0a57a9" offset="1"/>
        </linearGradient>
        <linearGradient id="gradient-8" x1="444.77" gradientUnits="userSpaceOnUse" y1="302.12"
                        gradientTransform="matrix(0, 1, -1, 0, 473.140293, -882.932083)" x2="602.46" y2="451.32">
            <stop id="stop-22" style="stop-color:#489f03" offset="0"/>
            <stop id="stop-23" style="stop-color:#55b505" offset="0.45"/>
            <stop id="stop-24" style="stop-color:#67d308" offset="1"/>
        </linearGradient>
        <linearGradient id="gradient-9" x1="444.77" gradientUnits="userSpaceOnUse" y1="302.12"
                        gradientTransform="matrix(0, 1, -1, 0, 656.447906, -881.919952)" x2="602.46" y2="451.32">
            <stop id="stop-25" style="stop-color:#139bca" offset="0"/>
            <stop id="stop-26" style="stop-color:#0e5fb0" offset="0.45"/>
            <stop id="stop-27" style="stop-color:#0a57a9" offset="1"/>
        </linearGradient>
    </defs>
    <g id="layer2" transform="translate(-137.29 -101.04)">
        <path id="path4359"
              d="M 370.91 401.356 L 370.879 401.356 C 370.669 399.011 369.306 396.477 367.316 395.325 C 365.152 394.072 362.331 394.083 360.16 395.325 C 353.888 397.746 347.562 401.592 340.722 401.356 C 329.888 401.356 321.014 392.836 320.472 382.137 C 320.455 381.792 320.472 381.455 320.472 381.106 C 320.472 369.922 329.538 360.856 340.722 360.856 C 347.685 360.856 353.633 364.632 360.16 366.887 C 362.331 368.129 365.152 368.14 367.316 366.887 C 369.306 365.735 370.669 363.201 370.879 360.856 L 370.91 360.856 L 370.91 287.106 L 444.66 287.106 L 444.66 287.137 C 447.005 287.347 449.539 288.709 450.691 290.7 C 451.944 292.864 451.933 295.685 450.691 297.856 C 448.436 304.384 444.66 310.332 444.66 317.294 C 444.66 327.757 452.595 336.366 462.775 337.433 C 436.678 367.817 405.641 393.835 370.91 414.241 Z M 479.129 297.856 C 477.887 295.685 477.876 292.864 479.129 290.7 C 480.281 288.709 482.815 283.281 485.16 283.071 L 485.16 283.04 L 501.437 283.04 C 496.046 292.326 490.254 301.351 484.087 310.091 C 482.814 305.91 480.679 301.872 479.129 297.856 Z"
              style="color:#000000;fill:#008000"/>
        <path id="path4374" style="color:#000000;fill:#873e00"
              d="M 299.61 438.267 C 299.61 427.083 290.544 418.017 279.36 418.017 C 279.011 418.017 278.674 418 278.329 418.017 C 267.629 418.559 259.11 427.433 259.11 438.267 C 258.897 444.429 261.997 450.173 264.384 455.837 C 240.814 460.934 216.391 463.743 191.36 464.018 L 191.36 400.736 L 191.329 400.736 C 191.119 398.391 189.756 395.857 187.766 394.705 C 185.602 393.452 182.781 393.463 180.61 394.705 C 174.338 397.126 168.012 400.972 161.172 400.736 C 150.338 400.736 141.464 392.216 140.922 381.517 C 140.905 381.172 140.922 380.835 140.922 380.486 C 140.922 369.302 149.988 360.236 161.172 360.236 C 168.135 360.236 174.083 364.012 180.61 366.267 C 182.781 367.509 185.602 367.52 187.766 366.267 C 189.756 365.115 191.119 362.581 191.329 360.236 L 191.36 360.236 L 191.36 286.486 L 259.11 286.486 L 259.11 286.455 C 261.455 286.245 263.989 284.882 265.141 282.892 C 266.394 280.727 266.383 277.907 265.141 275.736 C 262.72 269.464 258.873 263.137 259.11 256.298 C 259.11 245.463 267.629 236.59 278.329 236.048 C 278.674 236.03 279.011 236.048 279.36 236.048 C 290.544 236.048 299.61 245.114 299.61 256.298 C 299.61 263.261 295.834 269.208 293.579 275.736 C 292.337 277.907 292.326 280.727 293.579 282.892 C 294.73 284.882 297.265 286.245 299.61 286.455 L 299.61 286.486 L 373.36 286.486 L 373.36 360.236 L 373.329 360.236 C 373.119 362.581 371.757 365.115 369.767 366.267 C 367.602 367.52 364.781 367.509 362.61 366.267 C 356.082 364.012 350.134 360.236 343.172 360.236 C 331.989 360.236 322.922 369.302 322.922 380.486 C 322.922 380.835 322.905 381.172 322.922 381.517 C 323.464 392.217 332.338 400.736 343.172 400.736 C 350.012 400.972 356.339 397.126 362.61 394.705 C 364.781 393.463 363.602 393.452 365.767 394.705 C 367.757 395.857 369.119 398.391 369.329 400.736 L 369.36 400.736 L 369.36 415.146 C 346.954 428.162 323.029 438.849 297.914 446.875 C 298.901 444.11 299.61 441.284 299.61 438.267 Z"/>
        <path id="path4353" style="color:#000000;fill-opacity:.55985;fill:#000080"
              d="M 442.6 103.04 L 442.6 103.072 C 444.945 103.282 447.48 104.644 448.631 106.634 C 449.884 108.799 449.873 111.62 448.631 113.79 C 446.376 120.319 442.6 126.266 442.6 133.229 C 442.6 144.412 451.666 153.479 462.85 153.479 C 463.2 153.479 463.536 153.496 463.881 153.479 C 474.581 152.937 483.1 144.063 483.1 133.229 C 483.337 126.389 479.49 120.062 477.069 113.791 C 475.827 111.62 475.816 108.799 477.069 106.634 C 478.221 104.644 480.755 103.282 483.1 103.072 L 483.1 103.041 L 550.285 103.041 C 549.938 167.316 532.886 227.637 503.249 279.883 L 483.1 279.883 L 483.1 279.914 C 480.755 280.124 478.221 286.613 477.069 288.603 C 475.816 290.768 475.827 293.588 477.069 295.759 C 479.08 300.97 482.076 306.219 482.896 311.768 C 477.086 319.904 470.949 327.789 464.503 335.406 C 464.297 335.423 464.089 335.436 463.881 335.447 C 463.536 335.465 463.2 335.447 462.85 335.447 C 451.666 335.447 442.6 326.381 442.6 315.197 C 442.6 308.234 446.376 302.287 448.631 295.759 C 449.873 293.588 449.884 290.768 448.631 288.603 C 447.48 286.613 444.945 285.25 442.6 285.041 L 442.6 285.009 L 368.85 285.009 L 368.85 211.259 L 368.881 211.259 C 369.091 208.914 370.453 206.38 372.444 205.228 C 374.608 203.975 377.429 203.986 379.6 205.228 C 386.128 207.483 392.076 211.259 399.038 211.259 C 410.221 211.259 419.288 202.193 419.288 191.009 C 419.288 190.66 419.305 190.323 419.288 189.978 C 418.746 179.278 409.872 170.759 399.038 170.759 C 392.198 170.523 385.872 174.369 379.6 176.79 C 377.429 178.032 374.608 178.043 372.444 176.79 C 370.453 175.638 369.091 173.104 368.881 170.759 L 368.85 170.759 L 368.85 103.04 Z"/>
        <path id="path4355"
              d="M 189.88 103.04 L 189.88 170.759 L 189.911 170.759 C 190.121 173.104 191.484 175.638 193.474 176.79 C 195.638 178.043 198.459 178.032 200.63 176.79 C 206.902 174.369 213.228 170.523 220.068 170.759 C 230.902 170.759 239.776 179.278 240.318 189.978 C 240.335 190.323 240.318 190.66 240.318 191.009 C 240.318 202.193 231.252 211.259 220.068 211.259 C 213.106 211.259 207.158 207.483 200.63 205.228 C 198.459 203.986 195.638 203.975 193.474 205.228 C 191.484 206.38 190.121 208.914 189.911 211.259 L 189.881 211.259 L 189.881 285.009 L 257.631 285.009 L 257.631 284.978 C 259.977 284.768 262.511 283.406 263.662 281.415 C 264.915 279.251 264.904 276.43 263.662 274.259 C 261.242 267.987 257.395 261.661 257.631 254.821 C 257.631 243.987 266.15 235.113 276.85 234.571 C 277.195 234.554 277.532 234.571 277.882 234.571 C 289.066 234.571 298.132 243.638 298.132 254.821 C 298.132 261.783 294.356 267.731 292.1 274.259 C 290.858 276.43 290.847 279.251 292.1 281.415 C 293.252 283.406 295.786 284.768 298.132 284.978 L 298.132 285.009 L 371.882 285.009 L 371.882 211.259 L 371.913 211.259 C 372.122 208.914 373.485 206.38 375.475 205.228 C 377.64 203.975 380.46 203.986 382.631 205.228 C 389.159 207.483 395.106 211.259 402.069 211.259 C 413.253 211.259 422.319 202.193 422.319 191.009 C 422.319 190.66 422.336 190.323 422.319 189.978 C 421.777 179.279 412.904 170.759 402.069 170.759 C 395.23 170.523 388.903 174.369 382.631 176.79 C 380.46 178.032 377.64 178.043 375.475 176.79 C 373.485 175.638 372.122 173.104 371.913 170.759 L 371.882 170.759 L 371.882 103.04 L 304.132 103.04 L 304.132 103.071 C 301.786 103.281 299.252 104.644 298.1 106.634 C 296.848 108.798 296.858 111.619 298.1 113.79 C 300.521 120.062 304.368 126.388 304.132 133.228 C 304.132 144.062 295.612 152.936 284.913 153.478 C 284.567 153.496 284.231 153.478 283.881 153.478 C 272.697 153.478 263.631 144.412 263.631 133.228 C 263.631 126.266 267.407 120.318 269.663 113.79 C 270.904 111.619 270.915 108.798 269.663 106.634 C 268.511 104.644 265.977 103.281 263.631 103.071 L 263.631 103.041 L 189.881 103.041 L 189.88 103.04 Z"
              style="color:#000000;filter:url(#filter4402);fill-opacity:.82239;fill:#800000"/>
        <path id="path3971"
              d="M 7.744 103.04 L 7.744 170.759 L 7.775 170.759 C 7.985 173.104 9.347 175.638 11.337 176.79 C 13.502 178.043 16.323 178.032 18.494 176.79 C 24.765 174.369 31.092 170.522 37.932 170.759 C 48.766 170.759 57.64 179.278 58.182 189.978 C 58.199 190.323 58.182 190.66 58.182 191.009 C 58.182 202.193 49.115 211.259 37.932 211.259 C 30.97 211.259 25.022 207.483 18.494 205.228 C 16.323 203.986 13.502 203.975 11.337 205.228 C 9.347 206.38 7.985 208.914 7.775 211.259 L 7.744 211.259 L 7.744 285.009 L 81.494 285.009 L 81.494 285.04 C 83.839 285.25 86.374 286.613 87.525 288.603 C 88.778 290.767 88.767 293.588 87.525 295.759 C 85.27 302.286 81.494 308.234 81.494 315.197 C 81.494 326.381 90.56 335.447 101.744 335.447 C 102.093 335.447 102.43 335.465 102.775 335.447 C 113.475 334.905 121.994 326.031 121.994 315.197 C 122.231 308.357 118.384 302.031 115.963 295.759 C 114.721 293.588 114.71 290.767 115.963 288.603 C 117.115 286.613 119.649 285.25 121.994 285.04 L 121.994 285.009 L 189.744 285.009 L 189.744 211.259 L 189.775 211.259 C 189.985 208.914 191.348 206.379 193.338 205.228 C 195.502 203.975 198.323 203.986 200.494 205.228 C 207.021 207.483 212.969 211.259 219.932 211.259 C 231.116 211.259 240.182 202.193 240.182 191.009 C 240.182 190.66 240.199 190.323 240.182 189.978 C 239.64 179.279 230.766 170.759 219.932 170.759 C 213.092 170.523 206.766 174.369 200.494 176.79 C 198.323 178.032 195.502 178.043 193.338 176.79 C 191.348 175.638 189.985 173.104 189.775 170.759 L 189.744 170.759 L 189.744 103.04 L 121.994 103.04 L 121.994 103.071 C 119.649 103.281 117.115 104.643 115.963 106.634 C 114.71 108.798 114.721 111.619 115.963 113.79 C 118.384 120.062 122.231 126.388 121.994 133.228 C 121.994 144.062 113.475 152.936 102.775 153.478 C 102.43 153.495 102.093 153.478 101.744 153.478 C 90.56 153.478 81.494 144.412 81.494 133.228 C 81.494 126.266 85.27 120.318 87.525 113.79 C 88.767 111.619 88.778 108.798 87.525 106.634 C 86.374 104.643 83.839 103.281 81.494 103.071 L 81.494 103.041 L 7.744 103.041 L 7.744 103.04 Z"
              style="color:#000000;stroke:#000000;stroke-width:0.4;fill:url(#linearGradient4013)"/>
        <path id="path4006"
              d="M -174.663 103.041 L -100.913 103.041 L -100.913 103.071 C -98.567 103.281 -96.033 104.643 -94.881 106.633 C -93.629 108.798 -93.64 111.619 -94.881 113.79 C -97.137 120.318 -100.913 126.265 -100.913 133.228 C -100.913 144.411 -91.847 153.478 -80.663 153.478 C -80.313 153.478 -79.977 153.495 -79.631 153.478 C -68.932 152.936 -60.412 144.062 -60.412 133.228 C -60.176 126.388 -64.023 120.061 -66.444 113.79 C -67.686 111.619 -67.696 108.798 -66.444 106.633 C -65.292 104.643 -62.758 103.281 -60.412 103.071 L -60.412 103.04 L 7.338 103.04 L 7.338 170.759 L 7.369 170.759 C 7.578 173.104 8.941 175.638 10.931 176.79 C 13.096 178.042 15.916 178.032 18.087 176.79 C 24.359 174.369 30.686 170.522 37.525 170.759 C 48.36 170.759 57.233 179.279 57.775 189.978 C 57.792 190.323 57.775 190.659 57.775 191.009 C 57.775 202.193 48.709 211.259 37.525 211.259 C 30.562 211.259 24.615 207.483 18.087 205.228 C 15.916 203.986 13.096 203.975 10.931 205.228 C 8.941 206.379 7.578 208.913 7.369 211.259 L 7.338 211.259 L 7.338 285.009 L -66.412 285.009 L -66.412 284.977 C -68.758 284.768 -71.292 283.405 -72.444 281.415 C -73.697 279.25 -73.686 276.43 -72.444 274.259 C -70.188 267.731 -66.412 261.783 -66.412 254.821 C -66.412 243.637 -75.478 234.571 -86.662 234.571 C -87.012 234.571 -87.349 234.554 -87.694 234.571 C -98.394 235.113 -106.913 243.987 -106.913 254.821 C -107.149 261.661 -103.302 267.987 -100.882 274.259 C -99.64 276.43 -99.629 279.25 -100.882 281.415 C -102.033 283.405 -104.567 284.768 -106.913 284.977 L -106.913 285.009 L -125.706 285.009 C -140.087 260.594 -151.693 234.348 -160.091 206.706 C -160.091 206.706 -160.091 206.706 -160.091 206.706 C -154.99 208.831 -150.059 211.259 -144.476 211.259 C -133.292 211.259 -124.226 202.193 -124.226 191.009 C -124.226 190.659 -124.209 190.323 -124.226 189.978 C -124.768 179.278 -133.642 170.759 -144.476 170.759 C -151.316 170.522 -157.642 174.369 -163.914 176.79 C -165.029 177.428 -166.315 177.741 -167.595 177.725 C -167.638 177.523 -167.682 177.32 -167.725 177.118 C -167.738 177.054 -167.752 176.991 -167.765 176.928 C -168.083 175.432 -168.392 173.933 -168.692 172.431 C -168.7 172.391 -168.708 172.351 -168.716 172.312 C -168.758 172.098 -168.801 171.884 -168.843 171.67 C -169.762 167.008 -170.592 162.315 -171.331 157.591 C -172.794 148.237 -173.9 138.765 -174.635 129.189 C -174.645 129.061 -174.654 128.933 -174.664 128.805 L -174.664 103.04 Z"
              style="color:#000000;stroke:#000000;stroke-width:0.4;fill:url(#linearGradient4008)"/>
        <path id="path4023" style="color:#000000;stroke:#ff6600;stroke-width:0.4;fill:url(#linearGradient4027)"
              d="M -107.363 287.486 L -107.363 287.455 C -105.018 287.245 -102.484 285.882 -101.332 283.892 C -100.079 281.728 -100.09 278.907 -101.332 276.736 C -103.753 270.464 -107.6 264.138 -107.363 257.298 C -107.363 246.464 -98.844 237.59 -88.144 237.048 C -87.799 237.031 -87.462 237.048 -87.113 237.048 C -75.929 237.048 -66.863 246.114 -66.863 257.298 C -66.863 264.261 -70.639 270.209 -72.894 276.736 C -74.136 278.907 -74.147 281.728 -72.894 283.892 C -71.743 285.882 -69.208 287.245 -66.863 287.455 L -66.863 287.486 L 6.887 287.486 L 6.887 361.236 L 6.856 361.236 C 6.646 363.581 5.284 366.116 3.294 367.267 C 1.129 368.52 -1.692 368.509 -3.863 367.267 C -10.391 365.012 -16.339 361.236 -23.301 361.236 C -34.388 361.236 -43.396 370.148 -43.549 381.2 C -75.482 354.858 -102.835 323.162 -124.233 287.486 Z M -3.863 395.705 C -1.692 394.463 1.129 394.452 3.294 395.705 C 5.284 396.857 6.646 399.391 6.856 401.736 L 6.887 401.736 L 6.887 416.109 C -1.36 411.376 -9.404 406.329 -17.228 400.984 C -12.642 399.778 -8.239 397.394 -3.863 395.705 Z"/>
        <path id="path4025"
              d="M 116.833 438.821 C 116.833 427.637 107.767 418.571 96.583 418.571 C 96.233 418.571 95.897 418.554 95.552 418.571 C 84.852 419.113 76.333 427.987 76.333 438.821 C 76.233 441.706 76.86 444.499 77.799 447.236 C 53.525 439.566 30.354 429.413 8.583 417.076 L 8.583 401.29 L 8.552 401.29 C 8.342 398.945 6.979 396.411 4.989 395.259 C 2.824 394.006 0.004 394.017 -2.167 395.259 C -7.102 397.164 -12.071 399.951 -17.296 400.938 C -25.733 395.171 -33.915 389.057 -41.82 382.617 C -41.834 382.436 -41.846 382.254 -41.855 382.071 C -41.872 381.726 -41.855 381.39 -41.855 381.04 C -41.855 369.856 -32.789 360.79 -21.605 360.79 C -14.642 360.79 -8.694 364.566 -2.167 366.821 C 0.004 368.063 2.824 368.074 4.989 366.821 C 6.979 365.67 8.342 363.135 8.552 360.79 L 8.583 360.79 L 8.583 287.04 L 82.333 287.04 L 82.333 287.071 C 84.678 287.281 87.212 288.644 88.364 290.634 C 89.617 292.798 89.606 295.619 88.364 297.79 C 86.109 304.318 82.333 310.266 82.333 317.228 C 82.333 328.412 91.399 337.478 102.583 337.478 C 102.932 337.478 103.269 337.495 103.614 337.478 C 114.314 336.936 122.833 328.062 122.833 317.228 C 123.069 310.388 119.223 304.062 116.802 297.79 C 115.56 295.619 115.549 292.798 116.802 290.634 C 117.953 288.644 120.487 287.281 122.833 287.071 L 122.833 287.04 L 190.583 287.04 L 190.583 360.79 L 190.552 360.79 C 190.342 363.135 188.979 365.67 186.989 366.821 C 184.824 368.074 182.004 368.063 179.833 366.821 C 173.305 364.566 167.357 360.79 160.395 360.79 C 149.211 360.79 140.145 369.856 140.145 381.04 C 140.145 381.39 140.128 381.726 140.145 382.071 C 140.687 392.771 149.561 401.29 160.395 401.29 C 167.235 401.527 173.561 397.68 179.833 395.259 C 182.004 394.017 184.824 394.006 186.989 395.259 C 188.979 396.411 190.342 398.945 190.552 401.29 L 190.583 401.29 L 190.583 464.025 C 189.486 464.035 188.389 464.04 187.29 464.04 C 161.33 464.04 136.006 461.315 111.59 456.135 C 113.838 450.417 116.833 445.021 116.833 438.821 Z"
              style="color:#000000;fill:url(#linearGradient4029)"/>
        <path id="path-1"
              d="M 7.9 -6.747 L 7.869 -6.747 C 7.659 -4.401 6.296 -1.867 4.306 -0.716 C 2.142 0.537 -0.679 0.526 -2.85 -0.716 C -9.378 -2.971 -15.326 -6.747 -22.288 -6.747 C -33.472 -6.747 -42.538 2.319 -42.538 13.503 C -42.538 13.853 -42.555 14.189 -42.538 14.534 C -41.996 25.234 -33.122 33.753 -22.288 33.753 C -15.448 33.99 -9.122 30.143 -2.85 27.722 C -0.679 26.48 2.142 26.469 4.306 27.722 C 6.296 28.874 7.659 31.408 7.869 33.753 L 7.9 33.753 L 7.9 101.503 L -59.819 101.503 L -59.819 101.534 C -62.164 101.744 -64.698 103.107 -65.85 105.097 C -67.103 107.261 -67.092 110.082 -65.85 112.253 C -63.429 118.525 -59.583 124.851 -59.819 131.691 C -59.819 142.525 -68.339 151.399 -79.038 151.941 C -79.383 151.958 -79.72 151.941 -80.069 151.941 C -91.253 151.941 -100.319 142.875 -100.319 131.691 C -100.319 124.728 -96.543 118.78 -94.288 112.253 C -93.046 110.082 -93.035 107.261 -94.288 105.097 C -95.44 103.107 -97.974 101.744 -100.319 101.534 L -100.319 101.503 L -174.069 101.503 L -174.069 66.298 C -172.6 50.824 -170.159 35.633 -166.809 20.787 C -165.592 20.803 -164.378 21.116 -163.319 21.722 C -156.791 23.977 -150.843 27.753 -143.881 27.753 C -132.697 27.753 -123.631 18.687 -123.631 7.503 C -123.631 7.154 -123.614 6.817 -123.631 6.472 C -124.173 -4.228 -133.047 -12.747 -143.881 -12.747 C -149.105 -12.927 -154.03 -10.726 -158.859 -8.598 C -150.861 -33.873 -140.171 -57.952 -127.125 -80.497 L -100.319 -80.497 L -100.319 -80.466 C -97.974 -80.256 -95.439 -78.893 -94.288 -76.903 C -93.035 -74.739 -93.046 -71.918 -94.288 -69.747 C -96.543 -63.219 -100.319 -57.271 -100.319 -50.309 C -100.319 -39.125 -91.253 -30.059 -80.069 -30.059 C -79.72 -30.059 -79.383 -30.042 -79.038 -30.059 C -68.338 -30.601 -59.819 -39.475 -59.819 -50.309 C -59.582 -57.149 -63.429 -63.475 -65.85 -69.747 C -67.092 -71.918 -67.103 -74.739 -65.85 -76.903 C -64.698 -78.893 -62.164 -80.256 -59.819 -80.466 L -59.819 -80.497 L 7.9 -80.497 L 7.9 -6.747 Z"
              style="color: rgb(0, 0, 0); fill: rgb(0, 128, 0);"/>
        <path id="path-2"
              style="color: rgb(0, 0, 0); fill: rgb(135, 62, 0); transform-box: fill-box; transform-origin: 50% 50%;"
              d="M 186.347 151.664 L 186.347 83.945 L 186.316 83.945 C 186.106 81.6 184.744 79.066 182.754 77.914 C 180.589 76.661 181.768 76.672 179.597 77.914 C 173.326 80.335 166.999 84.181 160.159 83.945 C 149.325 83.945 140.451 75.426 139.909 64.726 C 139.892 64.381 139.909 64.044 139.909 63.695 C 139.909 52.511 148.976 43.445 160.159 43.445 C 167.121 43.445 173.069 47.221 179.597 49.476 C 181.768 50.718 184.589 50.729 186.754 49.476 C 188.744 48.324 190.106 45.79 190.316 43.445 L 190.347 43.445 L 190.347 -30.305 L 116.597 -30.305 L 116.597 -30.336 C 114.252 -30.546 111.717 -31.909 110.566 -33.899 C 109.313 -36.064 109.324 -38.884 110.566 -41.055 C 112.821 -47.583 116.597 -53.53 116.597 -60.493 C 116.597 -71.677 107.531 -80.743 96.347 -80.743 C 95.998 -80.743 95.661 -80.761 95.316 -80.743 C 84.616 -80.201 76.097 -71.328 76.097 -60.493 C 75.86 -53.654 79.707 -47.327 82.128 -41.055 C 83.37 -38.884 83.381 -36.064 82.128 -33.899 C 80.976 -31.909 78.442 -30.546 76.097 -30.336 L 76.097 -30.305 L 8.347 -30.305 L 8.347 43.445 L 8.316 43.445 C 8.106 45.79 6.743 48.324 4.753 49.476 C 2.589 50.729 -0.232 50.718 -2.403 49.476 C -8.93 47.221 -14.878 43.445 -21.841 43.445 C -33.025 43.445 -42.091 52.511 -42.091 63.695 C -42.091 64.044 -42.108 64.381 -42.091 64.726 C -41.549 75.425 -32.675 83.945 -21.841 83.945 C -15.001 84.181 -8.675 80.335 -2.403 77.914 C -0.232 76.672 2.589 76.661 4.753 77.914 C 6.743 79.066 8.106 81.6 8.316 83.945 L 8.347 83.945 L 8.347 151.664 L 76.097 151.664 L 76.097 151.633 C 78.442 151.423 80.976 150.06 82.128 148.07 C 83.381 145.906 83.37 143.085 82.128 140.914 C 79.707 134.642 75.86 128.316 76.097 121.476 C 76.097 110.642 84.616 101.768 95.316 101.226 C 95.661 101.209 95.998 101.226 96.347 101.226 C 107.531 101.226 116.597 110.292 116.597 121.476 C 116.597 128.438 112.821 134.386 110.566 140.914 C 109.324 143.085 109.313 145.906 110.566 148.07 C 111.717 150.06 114.252 151.423 116.597 151.633 L 116.597 151.664 L 186.347 151.664 Z"
              transform="matrix(0, -1, 1, 0, 0.000031, 0.000023)"/>
        <path id="path-3"
              style="color: rgb(0, 0, 0); stroke: rgb(255, 102, 0); stroke-width: 0.4; fill: url('#gradient-1'); transform-box: fill-box; transform-origin: 50% 50%;"
              d="M 373.758 151.971 L 373.758 84.252 L 373.727 84.252 C 373.517 81.907 372.155 79.373 370.165 78.221 C 368 76.968 365.179 76.979 363.008 78.221 C 356.737 80.642 350.41 84.489 343.57 84.252 C 332.736 84.252 323.862 75.733 323.32 65.033 C 323.303 64.688 323.32 64.352 323.32 64.002 C 323.32 52.818 332.387 43.752 343.57 43.752 C 350.532 43.752 356.48 47.528 363.008 49.783 C 365.179 51.025 368 51.036 370.165 49.783 C 372.155 48.632 373.517 46.097 373.727 43.752 L 373.758 43.752 L 373.758 -29.998 L 300.008 -29.998 L 300.008 -30.029 C 297.663 -30.239 295.128 -31.602 293.977 -33.592 C 292.724 -35.756 292.735 -38.577 293.977 -40.748 C 296.232 -47.275 300.008 -53.223 300.008 -60.186 C 300.008 -71.37 290.942 -80.436 279.758 -80.436 C 279.409 -80.436 279.072 -80.453 278.727 -80.436 C 268.027 -79.894 259.508 -71.02 259.508 -60.186 C 259.271 -53.346 263.118 -47.02 265.539 -40.748 C 266.781 -38.577 266.792 -35.756 265.539 -33.592 C 264.387 -31.602 261.853 -30.239 259.508 -30.029 L 259.508 -29.998 L 191.758 -29.998 L 191.758 43.752 L 191.727 43.752 C 191.517 46.097 190.154 48.632 188.164 49.783 C 186 51.036 183.179 51.025 181.008 49.783 C 174.481 47.528 168.533 43.752 161.57 43.752 C 150.386 43.752 141.32 52.818 141.32 64.002 C 141.32 64.352 141.303 64.688 141.32 65.033 C 141.862 75.732 150.736 84.252 161.57 84.252 C 168.41 84.489 174.736 80.642 181.008 78.221 C 183.179 76.979 186 76.968 188.164 78.221 C 190.154 79.373 191.517 81.907 191.727 84.252 L 191.758 84.252 L 191.758 151.971 L 259.508 151.971 L 259.508 151.94 C 261.853 151.73 264.387 150.368 265.539 148.377 C 266.792 146.213 266.781 143.392 265.539 141.221 C 263.118 134.949 259.271 128.623 259.508 121.783 C 259.508 110.949 268.027 102.075 278.727 101.533 C 279.072 101.516 279.409 101.533 279.758 101.533 C 290.942 101.533 300.008 110.599 300.008 121.783 C 300.008 128.745 296.232 134.693 293.977 141.221 C 292.735 143.392 292.724 146.213 293.977 148.377 C 295.128 150.368 297.663 151.73 300.008 151.94 L 300.008 151.971 L 373.758 151.971 Z"
              transform="matrix(0, -1, 1, 0, 0.000024, 0.000012)"/>
        <path id="path-4"
              d="M 522.396 -6.256 C 511.212 -6.256 502.146 2.81 502.146 13.994 C 502.146 14.343 502.129 14.68 502.146 15.025 C 502.688 25.725 511.562 34.244 522.396 34.244 C 529.236 34.481 535.562 30.634 541.834 28.213 C 542.17 28.021 542.521 27.858 542.883 27.725 C 547.739 51.405 550.29 75.924 550.29 101.04 C 550.29 101.358 550.29 101.676 550.289 101.994 L 484.865 101.994 L 484.865 102.025 C 482.52 102.235 479.986 103.598 478.834 105.588 C 477.581 107.752 477.592 110.573 478.834 112.744 C 481.255 119.016 485.101 125.342 484.865 132.182 C 484.865 143.016 476.345 151.89 465.646 152.432 C 465.301 152.449 464.964 152.432 464.615 152.432 C 453.431 152.432 444.365 143.366 444.365 132.182 C 444.365 125.219 448.141 119.271 450.396 112.744 C 451.638 110.573 451.649 107.752 450.396 105.588 C 449.245 103.598 446.71 102.235 444.365 102.025 L 444.365 101.994 L 370.615 101.994 L 370.615 34.244 L 370.584 34.244 C 370.374 31.899 369.011 29.365 367.021 28.213 C 364.857 26.96 362.036 26.971 359.865 28.213 C 353.593 30.634 347.267 34.481 340.427 34.244 C 329.593 34.244 320.719 25.725 320.177 15.025 C 320.159 14.68 320.177 14.343 320.177 13.994 C 320.177 2.81 329.243 -6.256 340.427 -6.256 C 347.39 -6.256 353.338 -2.48 359.865 -0.225 C 362.036 1.017 364.857 1.028 367.021 -0.225 C 369.011 -1.376 370.374 -3.911 370.584 -6.256 L 370.615 -6.256 L 370.615 -80.006 L 444.365 -80.006 L 444.365 -79.975 C 446.71 -79.765 449.244 -78.403 450.396 -76.413 C 451.649 -74.248 451.638 -71.427 450.396 -69.256 C 448.141 -62.728 444.365 -56.78 444.365 -49.818 C 444.365 -38.635 453.431 -29.568 464.615 -29.568 C 464.964 -29.568 465.301 -29.551 465.646 -29.568 C 476.346 -30.11 484.865 -38.984 484.865 -49.818 C 485.102 -56.658 481.255 -62.985 478.834 -69.256 C 477.592 -71.427 477.581 -74.248 478.834 -76.413 C 479.986 -78.403 482.52 -79.765 484.865 -79.975 L 484.865 -80.006 L 501.989 -80.006 C 515.881 -55.911 527.085 -30.071 535.192 -2.896 C 531.063 -4.643 526.946 -6.256 522.396 -6.256 Z"
              style="color: rgb(0, 0, 0); stroke: rgb(0, 0, 0); stroke-width: 0.4; fill: url('#gradient-2');"/>
        <path id="path-5"
              d="M 485.413 -82.487 L 485.413 -82.456 C 483.068 -82.247 480.534 -80.884 479.382 -78.894 C 478.13 -76.729 478.14 -73.909 479.382 -71.738 C 481.803 -65.466 485.65 -59.139 485.413 -52.3 C 485.413 -41.465 476.893 -32.592 466.194 -32.05 C 465.849 -32.033 465.513 -32.05 465.163 -32.05 C 453.979 -32.05 444.913 -41.116 444.913 -52.3 C 444.913 -59.263 448.689 -65.21 450.944 -71.738 C 452.186 -73.909 452.197 -76.729 450.944 -78.894 C 449.793 -80.884 447.259 -82.247 444.913 -82.456 L 444.913 -82.487 L 371.163 -82.487 L 371.163 -156.237 L 371.195 -156.237 C 371.404 -158.583 372.767 -161.117 374.757 -162.269 C 376.922 -163.522 379.742 -163.511 381.913 -162.269 C 388.441 -160.013 394.389 -156.237 401.351 -156.237 C 412.446 -156.237 421.457 -165.16 421.599 -176.222 C 452.906 -149.738 479.667 -118.048 500.546 -82.487 L 485.413 -82.487 Z M 381.913 -190.707 C 379.742 -189.465 376.922 -189.454 374.757 -190.707 C 372.767 -191.858 371.404 -194.392 371.195 -196.738 L 371.163 -196.738 L 371.163 -212.013 C 379.608 -207.042 387.833 -201.739 395.822 -196.123 C 391.041 -194.969 386.463 -192.462 381.913 -190.707 Z"
              style="color: rgb(0, 0, 0); stroke: rgb(0, 0, 0); stroke-width: 0.4; fill: url('#gradient-3');"/>
        <path id="path-6" style="color:#000000;fill-opacity:.55985;fill:#000080"
              d="M 269.541 -249.34 C 267.286 -242.811 263.51 -236.864 263.51 -229.901 C 263.51 -218.718 272.576 -209.651 283.76 -209.651 C 284.11 -209.651 284.446 -209.634 284.791 -209.651 C 295.491 -210.193 304.01 -219.067 304.01 -229.901 C 304.181 -234.826 302.234 -239.484 300.227 -244.047 C 325.395 -235.816 349.351 -224.908 371.76 -211.66 L 371.76 -192.37 L 371.791 -192.37 C 372.001 -190.025 373.364 -187.491 375.354 -186.339 C 377.518 -185.087 380.339 -185.097 382.51 -186.339 C 388.506 -188.654 394.552 -192.272 401.049 -192.378 C 408.184 -187.172 415.121 -181.711 421.848 -176.01 C 422.031 -175.078 422.149 -174.124 422.198 -173.151 C 422.215 -172.806 422.198 -172.47 422.198 -172.12 C 422.198 -160.936 413.132 -151.87 401.948 -151.87 C 394.985 -151.87 389.037 -155.646 382.51 -157.901 C 380.339 -159.143 377.518 -159.154 375.354 -157.901 C 373.364 -156.75 372.001 -154.216 371.791 -151.87 L 371.76 -151.87 L 371.76 -83.247 L 304.01 -83.247 L 304.01 -83.216 C 301.665 -83.006 299.131 -76.517 297.979 -74.527 C 296.726 -72.362 296.737 -69.542 297.979 -67.371 C 300.4 -61.099 304.247 -54.772 304.01 -47.933 C 304.01 -37.098 295.491 -28.225 284.791 -27.683 C 284.446 -27.665 284.11 -27.683 283.76 -27.683 C 272.576 -27.683 263.51 -36.749 263.51 -47.933 C 263.51 -54.896 267.286 -60.843 269.541 -67.371 C 270.783 -69.542 270.794 -72.362 269.541 -74.527 C 268.39 -76.517 265.855 -77.88 263.51 -78.089 L 263.51 -78.121 L 189.76 -78.121 L 189.76 -151.871 L 189.791 -151.871 C 190.001 -154.216 191.363 -156.75 193.354 -157.902 C 195.518 -159.155 198.339 -159.144 200.51 -157.902 C 207.038 -155.647 212.986 -151.871 219.948 -151.871 C 231.131 -151.871 240.198 -160.937 240.198 -172.121 C 240.198 -172.47 240.215 -172.807 240.198 -173.152 C 239.656 -183.852 230.782 -192.371 219.948 -192.371 C 213.108 -192.607 206.782 -188.761 200.51 -186.34 C 198.339 -185.098 195.518 -185.087 193.354 -186.34 C 191.363 -187.492 190.001 -190.026 189.791 -192.371 L 189.76 -192.371 L 189.76 -260.09 L 224.364 -260.09 C 240.045 -258.499 255.431 -255.911 270.457 -252.388 C 270.38 -251.321 270.074 -250.271 269.541 -249.34 Z"/>
        <path id="path-7"
              style="color: rgb(0, 0, 0); stroke: rgb(255, 102, 0); stroke-width: 0.4; fill: url('#gradient-4');"
              d="M 79.73 -231.782 C 79.73 -220.598 88.796 -211.532 99.98 -211.532 C 100.329 -211.532 100.666 -211.515 101.011 -211.532 C 111.711 -212.074 120.23 -220.948 120.23 -231.782 C 120.467 -238.622 116.62 -244.948 114.199 -251.22 C 113.643 -252.192 113.334 -253.293 113.274 -254.408 C 137.17 -259.359 161.926 -261.96 187.29 -261.96 C 187.52 -261.96 187.75 -261.96 187.98 -261.959 L 187.98 -194.251 L 188.011 -194.251 C 188.221 -191.906 189.583 -189.371 191.573 -188.219 C 193.737 -186.966 196.558 -186.977 198.729 -188.219 C 205.002 -190.64 211.328 -194.487 218.168 -194.25 C 229.002 -194.25 237.875 -185.73 238.417 -175.031 C 238.434 -174.686 238.417 -174.35 238.417 -174 C 238.417 -162.816 229.351 -153.75 218.167 -153.75 C 211.204 -153.75 205.256 -157.526 198.729 -159.781 C 196.558 -161.023 193.737 -161.034 191.573 -159.781 C 189.583 -158.63 188.22 -156.096 188.01 -153.751 L 187.979 -153.751 L 187.979 -80.001 L 120.229 -80.001 L 120.229 -79.97 C 117.884 -79.76 115.35 -78.397 114.198 -76.407 C 112.945 -74.243 112.956 -71.422 114.198 -69.251 C 116.619 -62.979 120.466 -56.653 120.229 -49.813 C 120.229 -38.979 111.71 -30.105 101.01 -29.563 C 100.665 -29.546 100.328 -29.563 99.979 -29.563 C 88.795 -29.563 79.729 -38.629 79.729 -49.813 C 79.729 -56.776 83.505 -62.724 85.76 -69.251 C 87.002 -71.422 87.013 -74.243 85.76 -76.407 C 84.609 -78.397 82.074 -79.76 79.729 -79.97 L 79.729 -80.001 L 5.979 -80.001 L 5.979 -153.751 L 6.01 -153.751 C 6.22 -156.096 7.582 -158.631 9.572 -159.782 C 11.737 -161.035 14.558 -161.024 16.729 -159.782 C 23.257 -157.527 29.205 -153.751 36.167 -153.751 C 47.35 -153.751 56.417 -162.817 56.417 -174.001 C 56.417 -174.351 56.434 -174.687 56.417 -175.032 C 55.875 -185.732 47.002 -194.251 36.168 -194.251 C 29.328 -194.488 23.001 -190.641 16.729 -188.22 C 14.558 -186.978 11.737 -186.967 9.572 -188.22 C 7.582 -189.372 6.221 -191.906 6.011 -194.251 L 5.98 -194.251 L 5.98 -213.507 C 30.388 -227.606 56.59 -238.946 84.159 -247.101 C 82.065 -242.105 79.73 -237.257 79.73 -231.782 Z"/>
        <path id="path-8" style="color: rgb(0, 0, 0); fill: rgb(135, 62, 0);"
              d="M 4.966 -195.482 L 4.997 -195.482 C 5.207 -193.137 6.57 -190.603 8.56 -189.451 C 10.724 -188.198 13.545 -188.209 15.716 -189.451 C 21.988 -191.872 28.314 -195.718 35.154 -195.482 C 45.988 -195.482 54.862 -186.962 55.404 -176.263 C 55.421 -175.918 55.404 -175.581 55.404 -175.232 C 55.404 -164.048 46.338 -154.982 35.154 -154.982 C 28.191 -154.982 22.243 -158.758 15.716 -161.013 C 13.545 -162.255 10.724 -162.266 8.56 -161.013 C 6.57 -159.861 5.207 -157.327 4.997 -154.982 L 4.966 -154.982 L 4.966 -81.232 L -62.784 -81.232 L -62.784 -81.201 C -65.129 -80.991 -67.663 -79.628 -68.815 -77.638 C -70.068 -75.473 -70.057 -72.653 -68.815 -70.482 C -66.394 -64.21 -62.547 -57.883 -62.784 -51.044 C -62.784 -40.209 -71.303 -31.336 -82.003 -30.794 C -82.348 -30.776 -82.685 -30.794 -83.034 -30.794 C -94.218 -30.794 -103.284 -39.86 -103.284 -51.044 C -103.284 -58.007 -99.508 -63.954 -97.253 -70.482 C -96.011 -72.653 -96 -75.473 -97.253 -77.638 C -98.404 -79.628 -100.939 -80.991 -103.284 -81.201 L -103.284 -81.232 L -126.699 -81.232 C -94.999 -135.723 -49.52 -181.21 4.966 -212.919 L 4.966 -195.482 Z"/>
        <path id="path-9"
              d="M 76.465 440.124 C 76.465 429.289 84.985 420.416 95.684 419.874 C 96.029 419.857 96.365 419.874 96.715 419.874 C 107.899 419.874 116.965 428.94 116.965 440.124 C 116.965 445.899 114.368 450.975 112.195 456.263 C 100.402 453.782 88.821 450.73 77.48 447.135 C 76.799 444.847 76.382 442.517 76.465 440.124 Z"
              style="color: rgb(0, 0, 0); stroke: rgb(0, 0, 0); stroke-width: 0.4; fill: url('#gradient-5');"/>
        <path id="path-10"
              style="color: rgb(0, 0, 0); stroke: rgb(255, 102, 0); stroke-width: 0.4; fill: url('#gradient-6');"
              d="M 260.586 440.388 C 260.586 429.554 269.105 420.68 279.805 420.138 C 280.15 420.121 280.487 420.138 280.836 420.138 C 292.02 420.138 301.086 429.204 301.086 440.388 C 301.086 442.363 300.782 444.257 300.295 446.105 C 288.739 449.887 276.928 453.105 264.894 455.726 C 262.717 450.781 260.4 445.742 260.586 440.388 Z"/>
        <path id="path-11" style="color: rgb(0, 0, 0); fill: rgb(135, 62, 0);"
              d="M 542.573 28.607 C 536.301 31.028 529.974 34.875 523.135 34.638 C 512.3 34.638 503.427 26.119 502.885 15.419 C 502.867 15.074 502.885 14.737 502.885 14.388 C 502.885 3.204 511.951 -5.862 523.135 -5.862 C 527.424 -5.862 531.328 -4.429 535.22 -2.801 C 538.263 7.409 540.869 17.809 543.015 28.375 C 542.865 28.447 542.718 28.524 542.573 28.607 Z"/>
        <path id="path-12"
              d="M 548.416 103.084 L 550.284 103.084 C 550.219 114.916 549.588 126.615 548.416 138.153 L 548.416 103.084 Z"
              style="color: rgb(0, 0, 0); fill: rgb(0, 128, 0);"/>
        <path id="path-13"
              d="M -146.278 -12.947 C -135.444 -12.947 -126.57 -4.427 -126.028 6.272 C -126.011 6.617 -126.028 6.954 -126.028 7.303 C -126.028 18.487 -135.094 27.553 -146.278 27.553 C -153.241 27.553 -159.189 23.777 -165.716 21.522 C -166.08 21.314 -166.462 21.14 -166.857 21.001 C -164.488 10.473 -161.661 0.118 -158.399 -10.041 C -154.481 -11.699 -150.477 -13.092 -146.278 -12.947 Z"
              style="color: rgb(0, 0, 0); stroke: rgb(0, 0, 0); stroke-width: 0.4; fill: url('#gradient-7');"/>
        <path id="path-14" style="color:#000000;fill-opacity:.55985;fill:#000080"
              d="M -165.331 176.636 C -159.059 174.215 -152.733 170.368 -145.893 170.605 C -135.059 170.605 -126.185 179.124 -125.643 189.824 C -125.626 190.169 -125.643 190.505 -125.643 190.855 C -125.643 202.039 -134.709 211.105 -145.893 211.105 C -150.901 211.105 -155.384 209.152 -159.936 207.216 C -162.913 197.466 -165.491 187.542 -167.651 177.463 C -166.838 177.323 -166.049 177.047 -165.331 176.636 Z"/>
        <path id="path-15"
              d="M 114.229 -253.033 C 116.65 -246.761 120.497 -240.434 120.26 -233.595 C 120.26 -222.761 111.74 -213.887 101.041 -213.345 C 100.696 -213.328 100.36 -213.345 100.01 -213.345 C 88.826 -213.345 79.76 -222.411 79.76 -233.595 C 79.76 -238.314 81.494 -242.567 83.314 -246.85 C 93.241 -249.812 103.346 -252.361 113.609 -254.477 C 113.761 -253.975 113.968 -253.49 114.229 -253.033 Z"
              style="color: rgb(0, 0, 0); fill: url('#gradient-8');"/>
        <path id="path-16"
              d="M 303.579 -232.578 C 303.579 -221.744 295.059 -212.87 284.36 -212.328 C 284.015 -212.311 283.678 -212.328 283.329 -212.328 C 272.145 -212.328 263.079 -221.394 263.079 -232.578 C 263.079 -239.541 266.855 -245.489 269.11 -252.016 C 269.224 -252.215 269.328 -252.42 269.421 -252.629 C 280.157 -250.146 290.71 -247.187 301.058 -243.775 C 302.54 -240.151 303.712 -236.447 303.579 -232.578 Z"
              style="color: rgb(0, 0, 0); stroke: rgb(0, 0, 0); stroke-width: 0.4; fill: url('#gradient-9');"/>
    </g>
</svg>
